<svg width="24" height="24" viewBox="0 0 24 24" fill="none" xmlns="http://www.w3.org/2000/svg">
<path fill-rule="evenodd" clip-rule="evenodd" d="M4.24654 12.2476C3.34168 11.3217 2.83333 10.0658 2.83333 8.75624C2.83333 7.44672 3.34168 6.19082 4.24654 5.26485C5.15139 4.33887 6.37864 3.81866 7.65831 3.81866C8.77342 3.81866 9.84874 4.21369 10.7056 4.92801C10.832 5.03342 10.9537 5.14578 11.0701 5.26485L11.9998 6.21623L12.9295 5.26485C13.0455 5.14606 13.1671 5.03364 13.2939 4.92794C13.6565 4.62551 14.0609 4.3781 14.4947 4.19417C15.0801 3.94594 15.7076 3.81818 16.3412 3.81818C16.9749 3.81818 17.6023 3.94594 18.1877 4.19417C18.7732 4.44239 19.305 4.80621 19.753 5.26485C20.2012 5.72327 20.5567 6.26756 20.7993 6.86662C21.0418 7.46569 21.1667 8.10779 21.1667 8.75624C21.1667 9.4047 21.0418 10.0468 20.7993 10.6459C20.5567 11.2449 20.2012 11.7892 19.753 12.2476L11.9998 20.1818L4.24654 12.2476ZM21.0692 13.5133L13.3163 21.4471C12.971 21.8005 12.496 22 11.9998 22C11.5036 22 11.0286 21.8005 10.6832 21.4471L2.93 13.513C1.68797 12.242 1 10.5299 1 8.75624C1 6.98259 1.68797 5.27053 2.93 3.99952C4.17393 2.72656 5.87353 2.00048 7.65831 2.00048C9.26442 2.00048 10.8015 2.58846 11.9997 3.63384C12.5277 3.17297 13.126 2.79713 13.774 2.52238C14.5861 2.17803 15.4586 2 16.3412 2C17.2238 2 18.0964 2.17803 18.9085 2.52238C19.7202 2.86655 20.4539 3.36936 21.0692 3.99921C21.6849 4.62894 22.1703 5.37356 22.5005 6.1891C22.8307 7.00457 23 7.87673 23 8.75624C23 9.63576 22.8307 10.5079 22.5005 11.3234C22.1703 12.1389 21.6849 12.8835 21.0692 13.5133Z" fill="white"/>
</svg>
