<svg width="24" height="24" viewBox="0 0 24 24" fill="none" xmlns="http://www.w3.org/2000/svg">
<path fill-rule="evenodd" clip-rule="evenodd" d="M5.63728 5.63699C6.02774 5.24641 6.02764 4.61324 5.63706 4.22278C5.24648 3.83231 4.61331 3.83241 4.22285 4.22299C2.16067 6.2858 1.0022 9.08319 1.0022 12C1.0022 14.9168 2.16067 17.7142 4.22285 19.777C4.61331 20.1676 5.24648 20.1677 5.63706 19.7772C6.02764 19.3867 6.02774 18.7536 5.63728 18.363C3.95004 16.6752 3.0022 14.3865 3.0022 12C3.0022 9.61352 3.95004 7.32474 5.63728 5.63699ZM19.7773 4.22299C19.3868 3.83241 18.7536 3.83231 18.3631 4.22278C17.9725 4.61324 17.9724 5.24641 18.3628 5.63699C20.0501 7.32474 20.9979 9.61352 20.9979 12C20.9979 14.3865 20.0501 16.6752 18.3628 18.363C17.9724 18.7536 17.9725 19.3867 18.3631 19.7772C18.7536 20.1677 19.3868 20.1676 19.7773 19.777C21.8395 17.7142 22.9979 14.9168 22.9979 12C22.9979 9.08319 21.8395 6.2858 19.7773 4.22299ZM8.46678 8.45749C8.85752 8.06719 8.85787 7.43402 8.46756 7.04328C8.07726 6.65254 7.44409 6.65219 7.05335 7.04249C6.40251 7.6926 5.8862 8.46462 5.53393 9.31441C5.18166 10.1642 5.00034 11.0751 5.00034 11.995C5.00034 12.9149 5.18166 13.8258 5.53393 14.6756C5.8862 15.5254 6.40251 16.2974 7.05335 16.9475C7.44409 17.3378 8.07726 17.3374 8.46756 16.9467C8.85787 16.556 8.85752 15.9228 8.46678 15.5325C8.00189 15.0681 7.6331 14.5167 7.38148 13.9097C7.12986 13.3027 7.00034 12.6521 7.00034 11.995C7.00034 11.3379 7.12986 10.6873 7.38148 10.0803C7.6331 9.4733 8.00189 8.92186 8.46678 8.45749ZM16.9468 7.05249C16.556 6.66219 15.9229 6.66254 15.5326 7.05328C15.1423 7.44402 15.1426 8.07719 15.5333 8.46749C15.9982 8.93186 16.367 9.4833 16.6186 10.0903C16.8703 10.6973 16.9998 11.3479 16.9998 12.005C16.9998 12.6621 16.8703 13.3127 16.6186 13.9197C16.367 14.5267 15.9982 15.0781 15.5333 15.5425C15.1426 15.9328 15.1423 16.566 15.5326 16.9567C15.9229 17.3474 16.556 17.3478 16.9468 16.9575C17.5976 16.3074 18.1139 15.5354 18.4662 14.6856C18.8185 13.8358 18.9998 12.9249 18.9998 12.005C18.9998 11.0851 18.8185 10.1742 18.4662 9.32441C18.1139 8.47462 17.5976 7.7026 16.9468 7.05249ZM11.0001 12C11.0001 11.4477 11.4478 11 12.0001 11C12.5523 11 13.0001 11.4477 13.0001 12C13.0001 12.5523 12.5523 13 12.0001 13C11.4478 13 11.0001 12.5523 11.0001 12ZM12.0001 9C10.3432 9 9.00006 10.3431 9.00006 12C9.00006 13.6569 10.3432 15 12.0001 15C13.6569 15 15.0001 13.6569 15.0001 12C15.0001 10.3431 13.6569 9 12.0001 9Z" fill="white"/>
</svg>
